<svg width="17" height="16" fill="none" xmlns="http://www.w3.org/2000/svg"><path fill-rule="evenodd" clip-rule="evenodd" d="M3.006 0A2.256 2.256 0 0 0 .75 2.256v2.257a2.256 2.256 0 0 0 2.256 2.256h2.257a2.256 2.256 0 0 0 2.256-2.256V2.256A2.256 2.256 0 0 0 5.263 0H3.006ZM1.981 2.256c0-.566.459-1.025 1.025-1.025h2.257c.567 0 1.025.459 1.025 1.025v2.257c0 .567-.458 1.025-1.025 1.025H3.006a1.025 1.025 0 0 1-1.025-1.025V2.256ZM12.237 0a2.256 2.256 0 0 0-2.256 2.256v2.257a2.256 2.256 0 0 0 2.256 2.256h2.257a2.256 2.256 0 0 0 2.256-2.256V2.256A2.256 2.256 0 0 0 14.494 0h-2.257Zm-1.026 2.256c0-.566.46-1.025 1.026-1.025h2.257c.566 0 1.025.459 1.025 1.025v2.257c0 .567-.459 1.025-1.025 1.025h-2.257a1.025 1.025 0 0 1-1.026-1.025V2.256ZM.75 11.487a2.256 2.256 0 0 1 2.256-2.256h2.257a2.256 2.256 0 0 1 2.256 2.256v2.257A2.256 2.256 0 0 1 5.263 16H3.006A2.256 2.256 0 0 1 .75 13.744v-2.257Zm2.256-1.026c-.566 0-1.025.46-1.025 1.026v2.257c0 .566.459 1.025 1.025 1.025h2.257c.567 0 1.025-.459 1.025-1.025v-2.257c0-.567-.458-1.026-1.025-1.026H3.006ZM12.237 9.23a2.256 2.256 0 0 0-2.256 2.257v2.257A2.256 2.256 0 0 0 12.237 16h2.257a2.256 2.256 0 0 0 2.256-2.256v-2.257a2.256 2.256 0 0 0-2.256-2.256h-2.257Zm-1.026 2.257c0-.567.46-1.026 1.026-1.026h2.257c.566 0 1.025.46 1.025 1.026v2.257c0 .566-.459 1.025-1.025 1.025h-2.257a1.025 1.025 0 0 1-1.026-1.025v-2.257Z" fill="#1D2327"/></svg>