<svg width="16" height="16" fill="none" xmlns="http://www.w3.org/2000/svg"><path fill-rule="evenodd" clip-rule="evenodd" d="M2.256 0A2.256 2.256 0 0 0 0 2.256v2.257a2.256 2.256 0 0 0 2.256 2.256h2.257a2.256 2.256 0 0 0 2.256-2.256V2.256A2.256 2.256 0 0 0 4.513 0H2.256ZM1.231 2.256c0-.566.459-1.025 1.025-1.025h2.257c.567 0 1.025.459 1.025 1.025v2.257c0 .567-.458 1.025-1.025 1.025H2.256a1.025 1.025 0 0 1-1.025-1.025V2.256ZM11.487 0a2.256 2.256 0 0 0-2.256 2.256v2.257a2.256 2.256 0 0 0 2.256 2.256h2.257A2.256 2.256 0 0 0 16 4.513V2.256A2.256 2.256 0 0 0 13.744 0h-2.257Zm-1.026 2.256c0-.566.46-1.025 1.026-1.025h2.257c.566 0 1.025.459 1.025 1.025v2.257c0 .567-.459 1.025-1.025 1.025h-2.257a1.025 1.025 0 0 1-1.026-1.025V2.256ZM0 11.487a2.256 2.256 0 0 1 2.256-2.256h2.257a2.256 2.256 0 0 1 2.256 2.256v2.257A2.256 2.256 0 0 1 4.513 16H2.256A2.256 2.256 0 0 1 0 13.744v-2.257Zm2.256-1.026c-.566 0-1.025.46-1.025 1.026v2.257c0 .566.459 1.025 1.025 1.025h2.257c.567 0 1.025-.459 1.025-1.025v-2.257c0-.567-.458-1.026-1.025-1.026H2.256ZM11.487 9.23a2.256 2.256 0 0 0-2.256 2.257v2.257A2.256 2.256 0 0 0 11.487 16h2.257A2.256 2.256 0 0 0 16 13.744v-2.257a2.256 2.256 0 0 0-2.256-2.256h-2.257Zm-1.026 2.257c0-.567.46-1.026 1.026-1.026h2.257c.566 0 1.025.46 1.025 1.026v2.257c0 .566-.459 1.025-1.025 1.025h-2.257a1.025 1.025 0 0 1-1.026-1.025v-2.257Z" fill="#fff"/></svg>