<svg width="16" height="16" fill="none" xmlns="http://www.w3.org/2000/svg"><path fill-rule="evenodd" clip-rule="evenodd" d="M1.436 1.23a.205.205 0 0 0-.205.206v1.64c0 .114.092.206.205.206h13.128a.205.205 0 0 0 .205-.205V1.436a.205.205 0 0 0-.205-.205H1.436ZM0 1.437C0 .643.643 0 1.436 0h13.128C15.357 0 16 .643 16 1.436v1.64c0 .794-.643 1.437-1.436 1.437H1.436A1.436 1.436 0 0 1 0 3.077V1.436Zm1.436 5.538a.205.205 0 0 0-.205.205v1.642c0 .113.092.205.205.205h13.128a.205.205 0 0 0 .205-.205V7.179a.205.205 0 0 0-.205-.205H1.436ZM0 7.18c0-.792.643-1.435 1.436-1.435h13.128c.793 0 1.436.643 1.436 1.435v1.642c0 .792-.643 1.435-1.436 1.435H1.436A1.436 1.436 0 0 1 0 8.821V7.179Zm1.23 5.744c0-.113.093-.205.206-.205h13.128c.113 0 .205.092.205.205v1.641a.205.205 0 0 1-.205.205H1.436a.205.205 0 0 1-.205-.205v-1.64Zm.206-1.436C.643 11.487 0 12.13 0 12.923v1.641C0 15.357.643 16 1.436 16h13.128c.793 0 1.436-.643 1.436-1.436v-1.64c0-.794-.643-1.437-1.436-1.437H1.436Z" fill="#1D2327"/></svg>