<svg width="164" height="150" viewBox="0 0 164 150" fill="none" xmlns="http://www.w3.org/2000/svg">
<g clip-path="url(#clip0_1942_92395)">
<path d="M69.474 2.49864C75.3485 -0.889194 82.5918 -0.889194 88.4663 2.49864L119.06 20.1564C124.934 23.5443 128.561 29.818 128.561 36.6051V71.9321C128.561 78.7192 124.945 84.9929 119.06 88.3808L88.4663 106.039C82.5918 109.426 75.3485 109.426 69.474 106.039L38.8808 88.3808C33.0063 84.9929 29.3789 78.7192 29.3789 71.9321V36.6165C29.3789 29.8294 32.9949 23.5557 38.8808 20.1678L69.474 2.49864Z" fill="#EF4723"/>
<path d="M69.474 2.49864C75.3485 -0.889194 82.5918 -0.889194 88.4663 2.49864L119.06 20.1564C124.934 23.5443 128.561 29.818 128.561 36.6051V71.9321C128.561 78.7192 124.945 84.9929 119.06 88.3808L88.4663 106.039C82.5918 109.426 75.3485 109.426 69.474 106.039L38.8808 88.3808C33.0063 84.9929 29.3789 78.7192 29.3789 71.9321V36.6165C29.3789 29.8294 32.9949 23.5557 38.8808 20.1678L69.474 2.49864Z" stroke="black" stroke-width="0.806051" stroke-miterlimit="10" stroke-linecap="round" stroke-linejoin="round"/>
<path d="M99.0983 76.0054C98.3226 76.6898 97.6154 77.283 96.9652 77.7735C94.4328 79.7126 92.8929 80.2716 92.8929 80.2716L87.9994 80.1005L90.1781 68.1689L86.4024 80.032L86.0488 81.1385L85.8207 81.8457L75.5659 79.5529C78.0754 79.3818 78.5317 75.9598 76.2846 75.013C74.0374 74.0662 74.2085 75.4693 72.3834 75.7088C70.5926 75.9484 65.699 73.051 65.5621 72.9712C65.2656 72.7431 64.969 72.5149 64.6496 72.2754C63.4747 71.3856 62.1629 70.3932 60.7713 69.3666L62.4937 66.8685L68.0032 62.9332L64.8435 63.4807L57.4975 64.7583L58.2047 62.5682L60.1325 56.5796L57.8625 49.9864L57.4062 48.6632L79.3758 53.8761L78.9766 54.378L83.4481 63.4807L86.8815 58.245L86.9043 58.2221L92.7789 63.7431C92.7675 63.7316 94.4785 70.5073 99.0983 76.0054Z" fill="#6EF78C"/>
<path d="M37.0462 83.3053L55.3428 87.1722C55.1375 87.3661 54.9093 87.5715 54.6584 87.7996C54.4302 88.0163 54.2477 88.2445 54.1108 88.4954L50.7686 87.7996L37.5025 85.0163C37.5025 85.0163 31.8333 97.4156 17.5177 95.6931C3.20211 93.9593 0.236328 83.3738 0.236328 83.3738L0.635568 80.5334C0.635568 80.5334 3.73823 92.0087 16.7306 93.9935C29.723 95.9669 37.0462 83.3053 37.0462 83.3053Z" fill="#FF8166"/>
<path d="M158.027 114.571L158.427 115.689C158.427 115.689 151.628 125.522 136.788 120.434C121.948 115.347 123.134 102.959 123.134 102.959L121.697 102.663C121.343 102.035 120.818 101.408 120.065 100.837L124.183 101.704C124.183 101.704 122.529 113.054 136.058 118.324C149.586 123.606 158.027 114.571 158.027 114.571Z" fill="#FF8166"/>
<path d="M67.1593 91.2315L65.1631 90.8094C65.7562 90.3418 66.1327 89.7714 66.338 89.0414C66.4977 89.5547 66.9311 90.8323 67.1593 91.2315Z" fill="#FF8166"/>
<path d="M103.547 97.3481L103.593 97.3823C103.103 97.9299 102.703 98.3519 102.452 98.6257L91.6616 96.3671L81.7946 94.3025L72.2129 92.2949C72.4296 91.8956 72.4524 91.3709 72.384 90.7664L103.547 97.3481Z" fill="#FF8166"/>
<path d="M114.852 104.316C115.16 105.251 115.582 107.601 114.247 111.936C112.411 117.879 108.362 129.023 108.362 129.023L106.856 129.16L86.6543 130.996L81.4414 131.464C84.738 128.567 84.8064 125.396 85.6619 120.514C86.5175 115.631 90.2817 116.031 91.3311 112.073C92.3806 108.114 92.9851 106.46 92.9851 106.46L81.8064 94.3007L91.6734 96.3653L93.3273 101.111C93.3273 101.111 105.008 104.738 108.373 105.468C110.848 106.004 113.209 105.126 114.658 103.837C114.647 103.837 114.749 103.996 114.852 104.316Z" fill="#63D196"/>
<path d="M67.1603 91.2328C67.8104 92.3621 68.6774 92.9894 69.5215 93.229C69.5215 93.229 67.6622 98.0198 61.1945 107.978C54.7268 117.936 38.8941 129.286 38.8941 129.286L23.2211 122.316L17.9854 119.989C17.9854 119.989 28.1489 115.495 30.1222 112.073C32.107 108.64 33.2933 107.853 39.4873 102.708C45.6926 97.5636 50.78 87.8107 50.78 87.8107L54.1222 88.5065C52.9701 90.6853 55.32 93.9818 57.4074 93.3316C57.761 93.2176 58.0234 93.0807 58.2173 92.921C58.4796 94.0275 60.3047 94.5179 60.8979 93.3316C61.4911 92.1453 61.6279 92.5103 64.0006 91.4837C64.4568 91.2898 64.8447 91.0617 65.1641 90.8107L67.1603 91.2328Z" fill="#63D196"/>
<path d="M56.8715 82.1534H56.9855C57.0882 82.8378 57.1452 83.545 57.0996 84.1039C56.9855 85.4842 56.9171 85.7009 55.3429 87.1724L37.0464 83.3055C37.0464 83.3055 29.7232 95.967 16.7308 93.9937C3.7384 92.0203 0.635742 80.5336 0.635742 80.5336L18.3962 84.9937C18.8068 85.0963 19.2517 84.9594 19.5255 84.64C20.5293 83.5108 22.7992 80.5222 23.9171 75.6971C24.67 72.5032 24.9095 68.488 23.9399 63.6743C23.8487 63.218 23.495 62.8644 23.0388 62.7845L4.91331 59.294C4.91331 59.294 13.5597 49.5868 26.0274 55.5982C27.7384 58.5184 32.1528 65.0431 40.4228 71.5222C51.2137 79.9518 56.5521 82.0279 56.8715 82.1534Z" fill="#FDD425"/>
<path d="M68.54 75.3422C67.867 74.7491 66.8404 73.9278 65.5742 72.9468C65.7225 73.038 70.6046 75.924 72.3955 75.6844C74.2206 75.4449 74.0495 74.0418 76.2967 74.9886C78.5438 75.9354 78.0761 79.3574 75.578 79.5285L71.1636 78.5361C70.6617 77.5551 69.8404 76.4943 68.54 75.3422Z" fill="#CDAE92"/>
<path d="M66.3378 89.0418C66.1325 89.7718 65.7561 90.3421 65.1629 90.8098C64.8436 91.0608 64.4557 91.2889 63.9994 91.4828C61.6268 92.5095 61.4899 92.1444 60.8968 93.3307C60.3036 94.5171 58.4785 94.0266 58.2162 92.9201C58.0223 93.0798 57.7599 93.2167 57.4063 93.3307C55.3188 93.9809 52.9576 90.6844 54.1211 88.5057C54.258 88.2547 54.4291 88.0152 54.6686 87.8098C54.9196 87.5703 55.1477 87.365 55.3531 87.1825C56.9272 85.711 56.9956 85.4828 57.1097 84.114C57.1553 83.5665 57.0983 82.8479 56.9956 82.1634H56.8816C56.5622 82.038 51.2238 79.9619 40.4443 71.5323C32.1629 65.0532 27.7599 58.5285 26.0489 55.6083C25.4557 54.6045 25.1934 54.0228 25.1934 54.0228L56.2428 50.1787L57.8854 49.9733L60.1553 56.5665L58.2276 62.5551L56.2428 62.7946L52.4329 63.2509C55.0679 65.1444 58.0679 67.3231 60.8055 69.3422C62.1972 70.3688 63.5089 71.3498 64.6839 72.2509C65.0032 72.4904 65.2998 72.73 65.5964 72.9467C66.8626 73.9163 67.8892 74.749 68.5622 75.3422C69.874 76.4942 70.6953 77.5551 71.1858 78.5475C72.3264 80.8402 71.7903 82.7794 71.4139 84.5817C70.7067 88.0266 72.201 88.9619 72.4177 90.7756C72.4861 91.3802 72.4633 91.9049 72.2466 92.3041C72.2124 92.3726 72.1667 92.441 72.1211 92.5095C71.5622 93.2167 70.5584 93.5247 69.5432 93.2395C68.6991 93.0114 67.8435 92.3726 67.1819 91.2433C66.931 90.8326 66.4975 89.5551 66.3378 89.0418Z" fill="#CDAE92"/>
<path d="M114.646 103.826C115.171 103.358 115.57 102.845 115.821 102.332C116.141 101.682 116.814 100.586 117.715 99.5485L117.863 99.6169C118.753 99.9819 119.472 100.393 120.065 100.837C120.806 101.408 121.342 102.035 121.696 102.663C122.563 104.202 122.415 105.788 121.981 106.723C121.217 108.343 119.928 108.503 117.589 105.868C116.243 104.351 114.852 104.317 114.852 104.317C114.749 103.997 114.646 103.837 114.646 103.826Z" fill="#CDAE92"/>
<path d="M115.593 91.1987C115.593 91.1987 117.327 89.2367 119.905 90.1835C121.217 90.6626 121.661 91.3698 121.536 92.0542L121.684 92.077C123.099 91.7462 125.939 91.6208 126.27 93.9021C126.601 96.1949 125.312 96.5942 122.209 96.8223C120.464 96.9478 118.89 98.2139 117.726 99.5485C116.814 100.587 116.141 101.682 115.833 102.332C115.582 102.857 115.171 103.37 114.658 103.826C113.198 105.115 110.848 105.993 108.372 105.457C105.007 104.727 93.3268 101.1 93.3268 101.1L91.6729 96.3546L102.464 98.6132C102.715 98.3508 103.114 97.9174 103.604 97.3698C103.969 96.9592 104.38 96.4801 104.825 95.9554C106.365 94.1075 108.258 91.2558 111.509 89.579C114.76 87.9022 115.912 89.4421 115.833 90.2519C115.787 90.5942 115.718 90.8907 115.593 91.1987Z" fill="#CDAE92"/>
<path d="M147.475 80.9895C162.19 83.2366 162.977 93.1264 162.977 93.1264L145.297 88.6435C144.874 88.5408 144.43 88.6777 144.144 89.0085C143.528 89.7385 142.422 91.21 141.407 93.4115C139.798 96.902 138.395 102.229 139.49 109.381C139.559 109.837 139.901 110.202 140.357 110.316L143.586 111.092L154.867 113.807L158.015 114.56C158.015 114.56 149.574 123.594 136.046 118.324C122.528 113.043 124.171 101.704 124.171 101.704L120.053 100.837C119.46 100.393 118.741 99.9705 117.852 99.6168L117.703 99.5484C118.878 98.2138 120.441 96.9476 122.186 96.8222C125.289 96.594 126.566 96.1834 126.247 93.902C125.916 91.6206 123.076 91.7461 121.662 92.0769L121.513 92.0541C121.639 91.3697 121.194 90.6625 119.882 90.1834C117.304 89.2366 115.57 91.1986 115.57 91.1986C115.696 90.902 115.764 90.594 115.798 90.2746C115.89 89.4648 114.738 87.9248 111.475 89.6016C108.224 91.2784 106.331 94.1302 104.791 95.9781C104.346 96.5142 103.935 96.9933 103.57 97.3925L103.525 97.3583L72.3726 90.7765C72.1558 88.9629 70.6615 88.0275 71.3688 84.5826C71.7338 82.7803 72.2813 80.8412 71.1406 78.5484L75.5551 79.5408L85.8098 81.8336L87.4296 82.1986L98.7224 84.7309L126.555 90.9591C126.566 90.9591 132.76 78.7537 147.475 80.9895Z" fill="#FDD425"/>
<path d="M57.407 48.6514L57.8633 49.9746L56.2207 50.1685L57.407 48.6514Z" fill="black"/>
<path d="M120.555 148.05C120.852 149.042 120.852 149.738 120.852 149.738L80.1865 150L80.8481 148.05H120.555Z" fill="#F2EEEB"/>
<path d="M45.6926 149.99H5.38086C5.38086 149.99 5.55196 149.249 5.92839 148.04H45.1337L45.1907 148.017C45.4189 148.633 45.59 149.283 45.6926 149.99Z" fill="#F2EEEB"/>
<path d="M89.4702 51.2511C89.9607 51.4451 90.7706 51.5477 90.7022 52.3234C90.6337 53.0991 89.9721 53.3842 88.5121 52.5743C87.0406 51.7759 87.1432 49.8823 88.0672 49.8937C88.9911 49.9279 88.5121 50.8747 89.4702 51.2511Z" fill="#F2EEEB"/>
<path d="M157.399 111.832L156.373 112.836C155.951 113.281 155.437 113.612 154.879 113.817L143.597 111.102C143.164 110.646 142.833 110.098 142.65 109.471L140.609 102.444C140.221 101.098 140.574 99.6384 141.544 98.6232L142.742 97.4483C141.772 98.4635 141.407 99.9236 141.806 101.27L143.848 108.296C144.247 109.642 145.32 110.68 146.688 111.022L153.795 112.768C155.084 113.076 156.441 112.722 157.399 111.832Z" fill="#FF8166"/>
<path d="M163.57 102.561C163.958 103.907 163.604 105.367 162.635 106.382L157.57 111.663L157.399 111.834C156.429 112.724 155.083 113.078 153.794 112.758L146.688 111.013C145.319 110.682 144.235 109.644 143.848 108.287L141.806 101.26C141.418 99.9142 141.772 98.4541 142.741 97.4389L147.806 92.1575C148.205 91.7469 148.684 91.4275 149.197 91.2222C149.95 90.9256 150.772 90.8572 151.581 91.0625L158.688 92.8077C159.658 93.0473 160.479 93.629 161.015 94.4275C161.243 94.7583 161.414 95.1347 161.528 95.5226L163.57 102.561Z" fill="#EF4723"/>
<path d="M162.978 93.1267L161.814 94.6438L161.016 94.4271C160.48 93.6286 159.658 93.0355 158.689 92.8073L151.582 91.0621C150.773 90.8682 149.94 90.9252 149.198 91.2218L145.468 90.2066C145.046 90.0925 144.601 90.218 144.293 90.526L141.419 93.4233C142.434 91.2218 143.541 89.7503 144.157 89.0203C144.442 88.6895 144.887 88.5412 145.309 88.6552L162.978 93.1267Z" fill="#FF8166"/>
<path d="M23.9517 63.6747C24.9213 68.4884 24.6704 72.5036 23.9289 75.6975C24.6133 70.3021 23.735 66.766 23.2787 65.3972C23.1418 64.9979 22.811 64.7013 22.4118 64.6101L5.52968 60.9143L4.93652 59.2945L23.062 62.785C23.4955 62.8648 23.8605 63.2185 23.9517 63.6747Z" fill="#FF8166"/>
<path d="M34.2745 140.956C34.2745 140.956 34.2631 140.956 34.2745 140.956C34.1376 140.968 32.746 141.15 28.7422 143.203C30.6357 140.34 32.3239 140.386 32.3239 140.386C32.8601 140.603 33.5102 140.785 34.2745 140.956Z" fill="#FDD425"/>
<path d="M120.555 148.051H80.8477L84.3838 137.66C84.3838 137.66 85.7412 137.477 89.8819 139.588C97.7982 143.614 99.0302 135.527 105.27 136.964C105.19 138.538 105.943 139.371 107.437 140.067C107.437 140.067 105.509 141.333 104.585 144.367C107.825 141.093 109.148 140.74 109.194 140.728C109.137 140.774 107.254 142.382 106.889 144.846C109.821 141.857 111.498 141.424 111.498 141.424C112.365 141.675 113.312 141.96 114.35 142.291C118.536 143.626 120.019 146.295 120.555 148.051Z" fill="#FDD425"/>
<path d="M107.448 140.044C107.95 140.272 108.543 140.489 109.205 140.705C109.159 140.717 107.836 141.059 104.597 144.344C105.521 141.31 107.448 140.044 107.448 140.044Z" fill="#FDD425"/>
<path d="M36.8063 141.583C36.7493 141.583 35.0041 141.56 31.3311 143.727C32.4603 141.469 34.1143 141.001 34.2626 140.955C35.0953 141.138 35.9508 141.343 36.8063 141.583Z" fill="#FDD425"/>
<path d="M45.2025 148.027L45.1454 148.05H5.92871C6.65875 145.723 8.16445 141.64 10.731 137.738C10.731 137.738 13.0352 138.195 15.4762 139.906C21.6702 142.678 26.0732 136.005 30.3394 137.065C29.6207 138.332 30.1454 139.529 32.3127 140.385C32.3127 140.385 30.6245 140.339 28.731 143.202C32.7348 141.161 34.1264 140.978 34.2633 140.967C34.115 141.001 32.461 141.468 31.3318 143.738C35.0048 141.583 36.75 141.594 36.807 141.594C40.3432 142.609 43.8337 144.332 45.2025 148.027Z" fill="#FDD425"/>
<path d="M111.51 141.4C111.51 141.4 109.833 141.834 106.901 144.822C107.266 142.359 109.149 140.75 109.206 140.705C109.89 140.933 110.654 141.149 111.51 141.4Z" fill="#FDD425"/>
<path d="M96.9653 77.7726L98.7334 84.7193L87.4406 82.187L87.0186 80.054L88.0109 80.0882L92.9045 80.2593C92.8931 80.2707 94.433 79.7117 96.9653 77.7726Z" fill="#CDAE92"/>
<path d="M88.2166 54.537L87.7032 55.3241L86.2432 52.6663C86.7907 53.613 87.4979 54.1834 88.2166 54.537Z" fill="black"/>
<path d="M23.221 122.316L38.894 129.285C38.894 129.285 33.9434 133.7 31.5023 135.753C30.9776 136.186 30.5898 136.631 30.3388 137.065C26.0727 136.004 21.6696 142.677 15.4757 139.905C13.0346 138.194 10.7305 137.738 10.7305 137.738C11.3693 136.768 12.0651 135.81 12.8293 134.897C16.4339 130.597 19.7875 126.513 21.6582 124.22C22.6506 123.023 23.221 122.316 23.221 122.316Z" fill="#CDAE92"/>
<path d="M86.6541 130.986L106.856 129.15C106.856 129.15 106.183 132.047 105.396 136.074C105.338 136.393 105.293 136.678 105.281 136.941C99.0305 135.503 97.8099 143.591 89.8936 139.564C85.7529 137.465 84.3955 137.636 84.3955 137.636L85.9811 132.971L86.6541 130.986Z" fill="#CDAE92"/>
<path d="M86.1075 52.4267C86.1531 52.5065 86.1987 52.5864 86.2444 52.6662L87.7044 55.324L86.2215 57.6054L86.3128 57.6624L86.8946 58.2099L86.8717 58.2327L83.4383 63.4685L78.9668 54.3658L79.366 53.8639L84.4421 47.5217C84.4421 47.5217 85.4459 47.7613 85.8109 46.7575C85.6056 46.6548 85.3774 46.4723 85.1835 46.1757C84.4193 45.2746 85.366 43.7346 86.5067 44.1111C87.6474 44.4875 87.5561 45.4913 87.5561 45.4913C87.5561 45.4913 86.8717 46.4152 87.5561 46.7232C88.2406 47.0312 88.9592 45.4913 88.9592 45.4913C88.9592 45.4913 90.4991 46.4038 91.8223 46.0502C92.7463 48.2746 94.1949 48.5369 94.1949 48.5369L93.8869 49.2327L91.3774 54.959C91.3774 54.959 89.7691 55.3012 88.1835 54.5369C87.4649 54.1947 86.7577 53.613 86.2101 52.6662L86.1075 52.4267ZM92.5523 49.6662C92.712 49.3924 92.7463 49.1187 92.6436 49.0502C92.5295 48.9818 92.3128 49.1643 92.1531 49.4381C91.9934 49.7118 91.9592 49.9856 92.0618 50.054C92.1759 50.1111 92.3926 49.94 92.5523 49.6662ZM90.6816 48.4229C90.8413 48.1491 90.8755 47.8753 90.7729 47.8069C90.6588 47.7384 90.4421 47.921 90.2824 48.1947C90.1227 48.4685 90.0771 48.7422 90.1911 48.8107C90.3052 48.8791 90.5219 48.708 90.6816 48.4229ZM90.7158 52.3354C90.7843 51.5597 89.9744 51.4571 89.4839 51.2632C88.5143 50.8867 89.0048 49.9286 88.0809 49.9171C87.1569 49.9057 87.0542 51.7993 88.5257 52.5978C89.9858 53.3848 90.6474 53.0997 90.7158 52.3354Z" fill="#CDAE92"/>
<path d="M90.178 68.1561L87.9993 80.099L87.0183 80.0648L86.4708 80.042L86.4023 80.0192L90.178 68.1561Z" fill="black"/>
<path d="M17.9854 119.99L23.2211 122.317C23.2211 122.317 22.6507 123.025 21.6698 124.222L17.9854 119.99Z" fill="black"/>
<path d="M96.6822 42.0467C99.0777 42.8224 98.9294 46.0962 98.0625 47.4308C97.207 48.7768 95.8267 49.5296 93.9104 49.2216L94.2184 48.5258C94.2184 48.5258 92.7697 48.2635 91.8458 46.0391C90.5226 46.3927 88.9826 45.4802 88.9826 45.4802C88.9826 45.4802 88.2526 47.0201 87.5796 46.7121C86.8952 46.4041 87.5796 45.4802 87.5796 45.4802C87.5796 45.4802 87.6708 44.465 86.5302 44.1C85.3895 43.7235 84.4427 45.2635 85.207 46.1646C85.4009 46.4612 85.629 46.6323 85.8343 46.7463C85.4693 47.7501 84.4655 47.5106 84.4655 47.5106C84.4655 47.5106 82.8115 47.1342 82.8115 45.0011C82.8115 42.868 85.6746 42.138 86.61 43.4155C86.61 43.4155 87.1918 42.2749 89.5758 41.7615C91.9598 41.2596 92.975 43.1418 92.975 43.1418C92.975 43.1418 94.2868 41.2825 96.6822 42.0467Z" fill="black"/>
<path d="M68.0036 62.9202L62.5055 66.8556L62.4941 66.8442L64.8439 63.4678L68.0036 62.9202Z" fill="black"/>
<path d="M86.6543 130.985L85.9699 132.993L81.4414 131.453L86.6543 130.985Z" fill="black"/>
<path d="M58.2055 62.5453L57.4983 64.7468L56.2207 62.7962L58.2055 62.5453Z" fill="black"/>
<path d="M92.6432 49.0508C92.7572 49.1193 92.7116 49.393 92.5519 49.6668C92.3922 49.9406 92.1755 50.1117 92.0614 50.0546C91.9473 49.9862 91.993 49.7124 92.1527 49.4387C92.3124 49.1535 92.5291 48.9824 92.6432 49.0508Z" fill="black"/>
<path d="M90.7613 47.818C90.8754 47.8865 90.8298 48.1602 90.6701 48.434C90.5104 48.7078 90.2936 48.8789 90.1796 48.8218C90.0655 48.7648 90.1111 48.4796 90.2708 48.2059C90.4305 47.9207 90.6473 47.7496 90.7613 47.818Z" fill="black"/>
<path d="M86.2451 52.6666L87.7052 55.3244" stroke="black" stroke-width="0.806051" stroke-miterlimit="10" stroke-linecap="round" stroke-linejoin="round"/>
<path d="M86.2451 52.6668C86.1995 52.587 86.154 52.5073 86.1084 52.4275L86.2451 52.6668Z" stroke="black" stroke-width="0.806051" stroke-miterlimit="10" stroke-linecap="round" stroke-linejoin="round"/>
<path d="M86.4377 46.9289C86.4377 46.9289 86.164 46.9289 85.8332 46.7578C85.6278 46.6552 85.3997 46.4726 85.2058 46.1761C84.4415 45.2749 85.3883 43.735 86.529 44.1114C87.6697 44.4879 87.5784 45.4917 87.5784 45.4917C87.5784 45.4917 86.894 46.4156 87.5784 46.7236C88.2628 47.0316 88.9814 45.4917 88.9814 45.4917C88.9814 45.4917 90.5214 46.4042 91.8446 46.0506C92.7685 48.2749 94.2172 48.5373 94.2172 48.5373L93.9092 49.2331L91.3997 54.9593C91.3997 54.9593 89.7913 55.3015 88.2058 54.5373C87.4872 54.1951 86.7799 53.6133 86.2324 52.6666" stroke="black" stroke-width="0.806051" stroke-miterlimit="10" stroke-linecap="round" stroke-linejoin="round"/>
<path d="M93.9101 49.2327C95.8264 49.5293 97.2067 48.7765 98.0622 47.4419C98.9177 46.0958 99.0774 42.8221 96.6819 42.0578C94.2865 41.2936 92.9633 43.1757 92.9633 43.1757C92.9633 43.1757 91.9481 41.2822 89.5641 41.7955C87.18 42.2974 86.5983 43.4495 86.5983 43.4495C85.6515 42.1719 82.7998 42.9019 82.7998 45.035C82.7998 47.1681 84.4538 47.5445 84.4538 47.5445L79.3778 53.8867L78.9785 54.3886L83.45 63.4913L86.8835 58.2555" stroke="black" stroke-width="0.806051" stroke-miterlimit="10" stroke-linecap="round" stroke-linejoin="round"/>
<path d="M65.5644 72.9478C65.2679 72.7197 64.9713 72.4916 64.6519 72.252C63.477 71.3623 62.1652 70.3699 60.7736 69.3433C58.0359 67.3128 55.0359 65.1455 52.4009 63.252C48.3287 60.3204 45.1348 58.0619 45.1348 58.0619" stroke="black" stroke-width="0.806051" stroke-miterlimit="10" stroke-linecap="round" stroke-linejoin="round"/>
<path d="M66.3395 89.0418C66.5106 89.5665 66.9326 90.844 67.1607 91.2319C67.8109 92.3612 68.6779 92.9885 69.522 93.2281C70.5486 93.5133 71.541 93.2053 72.0999 92.498C72.1455 92.441 72.1912 92.3726 72.2254 92.2927C72.4421 91.8935 72.4649 91.3688 72.3965 90.7642C72.1798 88.9505 70.6855 88.0151 71.3927 84.5703C71.7577 82.768 72.3052 80.8288 71.1645 78.5361C70.6626 77.5437 69.8414 76.4828 68.541 75.3307C67.868 74.7376 66.8414 73.9163 65.5752 72.9353" stroke="black" stroke-width="0.806051" stroke-miterlimit="10" stroke-linecap="round" stroke-linejoin="round"/>
<path d="M57.8649 49.9737L56.2223 50.179L25.1729 54.0231C25.1729 54.0231 25.4466 54.6049 26.0284 55.6087C27.7394 58.5288 32.1538 65.0535 40.4238 71.5326C51.2033 79.9623 56.5417 82.0383 56.8611 82.1638C56.8725 82.1638 56.8725 82.1638 56.8725 82.1638" stroke="black" stroke-width="0.806051" stroke-miterlimit="10" stroke-linecap="round" stroke-linejoin="round"/>
<path d="M52.4111 63.2527L56.221 62.7964L58.2058 62.5455" stroke="black" stroke-width="0.806051" stroke-miterlimit="10" stroke-linecap="round" stroke-linejoin="round"/>
<path d="M56.2217 50.1688L57.408 48.6517L57.8643 49.9749L60.1342 56.5681L58.2065 62.5453L57.4992 64.7468L56.2217 62.7962" stroke="black" stroke-width="0.806051" stroke-miterlimit="10" stroke-linecap="round" stroke-linejoin="round"/>
<path d="M79.3778 53.8647L57.4082 48.6517" stroke="black" stroke-width="0.806051" stroke-miterlimit="10" stroke-linecap="round" stroke-linejoin="round"/>
<path d="M88.2181 54.5369L87.7048 55.324L86.2219 57.6054L84.4082 60.3886" stroke="black" stroke-width="0.806051" stroke-miterlimit="10" stroke-linecap="round" stroke-linejoin="round"/>
<path d="M86.3135 57.6635L86.8952 58.211L92.7697 63.7319C92.7697 63.7319 94.4808 70.5076 99.1005 76.0057C98.3249 76.6901 97.6176 77.2832 96.9675 77.7737C94.4351 79.7129 92.8952 80.2718 92.8952 80.2718L88.0017 80.1007L87.0093 80.0665L86.4618 80.0437" stroke="black" stroke-width="0.806051" stroke-miterlimit="10" stroke-linecap="round" stroke-linejoin="round"/>
<path d="M57.5 64.7457L64.846 63.4681L68.0057 62.9206L62.5076 66.856" stroke="black" stroke-width="0.806051" stroke-miterlimit="10" stroke-linecap="round" stroke-linejoin="round"/>
<path d="M60.7725 69.3435L62.4949 66.8454L64.8447 63.469" stroke="black" stroke-width="0.806051" stroke-miterlimit="10" stroke-linecap="round" stroke-linejoin="round"/>
<path d="M55.3439 87.1725L37.0474 83.3056C37.0474 83.3056 29.7242 95.9672 16.7318 93.9938C3.73938 92.0205 0.636719 80.5338 0.636719 80.5338L18.3972 84.9938C18.8078 85.0965 19.2527 84.9596 19.5264 84.6402C20.5303 83.511 22.8002 80.5224 23.9181 75.6973C24.6709 72.5033 24.9105 68.4881 23.9409 63.6745C23.8496 63.2182 23.496 62.8646 23.0398 62.7847L4.91429 59.2942C4.91429 59.2942 13.5607 49.587 26.0284 55.5984" stroke="black" stroke-width="0.806051" stroke-miterlimit="10" stroke-linecap="round" stroke-linejoin="round"/>
<path d="M103.55 97.346L72.3975 90.7642" stroke="black" stroke-width="0.806051" stroke-miterlimit="10" stroke-linecap="round" stroke-linejoin="round"/>
<path d="M71.1641 78.5486L75.5785 79.541L85.8333 81.8338L87.453 82.1988L98.7458 84.7311L126.579 90.9592C126.579 90.9592 132.784 78.7539 147.487 81.0011C162.202 83.2482 162.989 93.1379 162.989 93.1379L145.309 88.655C144.886 88.5524 144.442 88.6893 144.156 89.0201C143.54 89.7501 142.434 91.2216 141.419 93.4231C139.81 96.9136 138.407 102.241 139.502 109.393C139.571 109.849 139.913 110.214 140.369 110.328L143.598 111.104L154.879 113.819L158.027 114.571C158.027 114.571 149.586 123.606 136.058 118.336C122.54 113.054 124.183 101.716 124.183 101.716L120.065 100.849" stroke="black" stroke-width="0.806051" stroke-miterlimit="10" stroke-linecap="round" stroke-linejoin="round"/>
<path d="M142.744 97.4485L147.809 92.1672C148.208 91.7565 148.687 91.4371 149.2 91.2318C149.953 90.9352 150.775 90.8668 151.584 91.0721L158.691 92.8174C159.66 93.0569 160.482 93.6387 161.018 94.4371C161.246 94.7679 161.417 95.1444 161.531 95.5322L163.573 102.559C163.961 103.905 163.607 105.365 162.638 106.38L157.573 111.661C157.516 111.719 157.459 111.776 157.402 111.833C156.432 112.722 155.086 113.076 153.797 112.757L146.691 111.011C145.322 110.68 144.238 109.642 143.851 108.285L141.809 101.258C141.421 99.9124 141.775 98.4638 142.744 97.4485Z" stroke="black" stroke-width="0.806051" stroke-miterlimit="10" stroke-linecap="round" stroke-linejoin="round"/>
<path d="M154.879 113.819C155.438 113.614 155.951 113.283 156.373 112.838L157.4 111.835L157.571 111.663" stroke="black" stroke-width="0.806051" stroke-miterlimit="10" stroke-linecap="round" stroke-linejoin="round"/>
<path d="M142.744 97.4487L141.546 98.6236C140.576 99.6388 140.211 101.099 140.611 102.445L142.652 109.471C142.835 110.099 143.166 110.658 143.599 111.103" stroke="black" stroke-width="0.806051" stroke-miterlimit="10" stroke-linecap="round" stroke-linejoin="round"/>
<path d="M121.697 102.664L123.135 102.96C123.135 102.96 121.948 115.359 136.789 120.435C151.629 125.511 158.427 115.69 158.427 115.69L158.028 114.572" stroke="black" stroke-width="0.806051" stroke-miterlimit="10" stroke-linecap="round" stroke-linejoin="round"/>
<path d="M91.6631 96.3658L102.454 98.6244" stroke="black" stroke-width="0.806051" stroke-miterlimit="10" stroke-linecap="round" stroke-linejoin="round"/>
<path d="M72.2256 92.2946L81.8073 94.3022L91.6628 96.3669" stroke="black" stroke-width="0.806051" stroke-miterlimit="10" stroke-linecap="round" stroke-linejoin="round"/>
<path d="M65.1543 90.8111L67.1619 91.2332" stroke="black" stroke-width="0.806051" stroke-miterlimit="10" stroke-linecap="round" stroke-linejoin="round"/>
<path d="M0.636544 80.5338L0.237305 83.3741C0.237305 83.3741 3.20308 93.9597 17.5187 95.6935C31.8343 97.4274 37.5035 85.0167 37.5035 85.0167L50.7696 87.8L54.1118 88.4958" stroke="black" stroke-width="0.806051" stroke-miterlimit="10" stroke-linecap="round" stroke-linejoin="round"/>
<path d="M4.92676 59.2947L5.51991 60.9145L22.402 64.6103C22.8127 64.7015 23.1435 64.9981 23.269 65.3973C23.7252 66.7662 24.6036 70.3023 23.9191 75.6977" stroke="black" stroke-width="0.806051" stroke-miterlimit="10" stroke-linecap="round" stroke-linejoin="round"/>
<path d="M161.017 94.4271L161.815 94.6438L162.979 93.1267" stroke="black" stroke-width="0.806051" stroke-miterlimit="10" stroke-linecap="round" stroke-linejoin="round"/>
<path d="M141.42 93.4225L144.294 90.5252C144.602 90.2172 145.047 90.0917 145.469 90.2058L149.199 91.221" stroke="black" stroke-width="0.806051" stroke-miterlimit="10" stroke-linecap="round" stroke-linejoin="round"/>
<path d="M81.8064 94.301L92.9851 106.461C92.9851 106.461 92.392 108.115 91.3311 112.073C90.2703 116.031 86.5175 115.632 85.6619 120.514C84.8064 125.396 84.738 128.567 81.4414 131.464L86.6543 130.997L106.856 129.16L108.362 129.023C108.362 129.023 112.422 117.879 114.247 111.936C115.582 107.601 115.171 105.252 114.852 104.316C114.749 103.997 114.647 103.837 114.647 103.837" stroke="black" stroke-width="0.806051" stroke-miterlimit="10" stroke-linecap="round" stroke-linejoin="round"/>
<path d="M50.781 87.7994C50.781 87.7994 45.6936 97.5523 39.4882 102.697C33.2829 107.841 32.0966 108.628 30.1232 112.062C28.1498 115.495 17.9863 119.978 17.9863 119.978L23.2221 122.305L38.8951 129.275C38.8951 129.275 54.7278 117.925 61.1954 107.967C67.6631 98.0086 69.5224 93.2177 69.5224 93.2177" stroke="black" stroke-width="0.806051" stroke-miterlimit="10" stroke-linecap="round" stroke-linejoin="round"/>
<path d="M86.6552 130.985L85.9708 132.992L84.3852 137.658L80.8491 148.049L80.1875 150L120.853 149.738C120.853 149.738 120.864 149.042 120.556 148.049C120.02 146.304 118.537 143.623 114.362 142.277C113.324 141.947 112.378 141.661 111.511 141.411C110.655 141.16 109.891 140.931 109.207 140.715C108.534 140.498 107.952 140.281 107.45 140.053C105.956 139.369 105.203 138.525 105.283 136.95C105.294 136.677 105.328 136.392 105.397 136.084C106.184 132.057 106.857 129.16 106.857 129.16" stroke="black" stroke-width="0.806051" stroke-miterlimit="10" stroke-linecap="round" stroke-linejoin="round"/>
<path d="M36.8077 141.582C40.3438 142.597 43.8457 144.319 45.2031 148.015C45.4313 148.62 45.591 149.27 45.6936 149.988H5.38184C5.38184 149.988 5.55294 149.247 5.92937 148.038C6.6594 145.711 8.16511 141.627 10.7316 137.726C11.3704 136.757 12.0662 135.798 12.8305 134.886C16.4351 130.585 19.7887 126.502 21.6594 124.209C22.629 123.011 23.2107 122.304 23.2107 122.304" stroke="black" stroke-width="0.806051" stroke-miterlimit="10" stroke-linecap="round" stroke-linejoin="round"/>
<path d="M38.8938 129.286C38.8938 129.286 33.9432 133.701 31.5021 135.754C30.9774 136.187 30.5896 136.632 30.3386 137.066C29.62 138.332 30.1447 139.529 32.312 140.385C32.8595 140.602 33.5097 140.796 34.274 140.955C35.0953 141.138 35.9508 141.343 36.8063 141.583" stroke="black" stroke-width="0.806051" stroke-miterlimit="10" stroke-linecap="round" stroke-linejoin="round"/>
<path d="M17.9863 119.991L21.6707 124.211" stroke="black" stroke-width="0.806051" stroke-miterlimit="10" stroke-linecap="round" stroke-linejoin="round"/>
<path d="M10.7314 137.727C10.7314 137.727 13.0356 138.183 15.4767 139.894C21.6706 142.666 26.0736 135.993 30.3398 137.054" stroke="black" stroke-width="0.806051" stroke-miterlimit="10" stroke-linecap="round" stroke-linejoin="round"/>
<path d="M84.3857 137.648C84.3857 137.648 85.7432 137.466 89.8838 139.576C97.8002 143.603 99.0321 135.515 105.272 136.952" stroke="black" stroke-width="0.806051" stroke-miterlimit="10" stroke-linecap="round" stroke-linejoin="round"/>
<path d="M81.4414 131.454L85.9699 132.994" stroke="black" stroke-width="0.806051" stroke-miterlimit="10" stroke-linecap="round" stroke-linejoin="round"/>
<path d="M5.92969 148.05H45.135" stroke="black" stroke-width="0.806051" stroke-miterlimit="10" stroke-linecap="round" stroke-linejoin="round"/>
<path d="M80.8486 148.05H120.556" stroke="black" stroke-width="0.806051" stroke-miterlimit="10" stroke-linecap="round" stroke-linejoin="round"/>
<path d="M85.8232 81.8332L86.0514 81.126L86.405 80.0196L90.1807 68.1564L88.0019 80.0994" stroke="black" stroke-width="0.806051" stroke-miterlimit="10" stroke-linecap="round" stroke-linejoin="round"/>
<path d="M96.9688 77.7729L98.7368 84.7196" stroke="black" stroke-width="0.806051" stroke-miterlimit="10" stroke-linecap="round" stroke-linejoin="round"/>
<path d="M87.0205 80.0651L87.4426 82.1981" stroke="black" stroke-width="0.806051" stroke-miterlimit="10" stroke-linecap="round" stroke-linejoin="round"/>
<path d="M89.4712 51.2517C88.5016 50.8753 88.9921 49.9171 88.0682 49.9057C87.1442 49.8943 87.0416 51.7878 88.513 52.5863C89.9845 53.3848 90.6461 53.111 90.7032 52.3353C90.7716 51.5597 89.9731 51.4456 89.4712 51.2517Z" stroke="black" stroke-width="0.806051" stroke-miterlimit="10" stroke-linecap="round" stroke-linejoin="round"/>
<path d="M91.5487 49.4604L91.4346 51.2513L90.5791 50.6467" stroke="black" stroke-width="0.806051" stroke-miterlimit="10" stroke-linecap="round" stroke-linejoin="round"/>
<path d="M34.2636 140.967C34.0811 141.013 32.4499 141.503 31.332 143.739C35.005 141.583 36.7503 141.595 36.8073 141.595" stroke="black" stroke-width="0.806051" stroke-miterlimit="10" stroke-linecap="round" stroke-linejoin="round"/>
<path d="M32.3142 140.386C32.3142 140.386 30.626 140.341 28.7324 143.204C32.6792 141.185 34.0936 140.979 34.2533 140.968C34.2533 140.968 34.2533 140.968 34.2647 140.968" stroke="black" stroke-width="0.806051" stroke-miterlimit="10" stroke-linecap="round" stroke-linejoin="round"/>
<path d="M109.207 140.705C109.149 140.75 107.267 142.359 106.902 144.823C109.834 141.834 111.511 141.401 111.511 141.401" stroke="black" stroke-width="0.806051" stroke-miterlimit="10" stroke-linecap="round" stroke-linejoin="round"/>
<path d="M107.45 140.042C107.45 140.042 105.523 141.308 104.599 144.342C107.838 141.068 109.161 140.715 109.207 140.703" stroke="black" stroke-width="0.806051" stroke-miterlimit="10" stroke-linecap="round" stroke-linejoin="round"/>
<path d="M84.4531 47.5222C84.4531 47.5222 85.4569 47.7618 85.8219 46.758" stroke="black" stroke-width="0.806051" stroke-miterlimit="10" stroke-linecap="round" stroke-linejoin="round"/>
<path d="M90.2728 48.195C90.1131 48.4688 90.0675 48.7425 90.1815 48.811C90.2956 48.8794 90.5123 48.6969 90.672 48.4231C90.8317 48.1494 90.8659 47.8756 90.7633 47.8072C90.6492 47.7501 90.4325 47.9212 90.2728 48.195Z" stroke="black" stroke-width="0.806051" stroke-miterlimit="10" stroke-linecap="round" stroke-linejoin="round"/>
<path d="M92.1535 49.4255C91.9938 49.6993 91.9596 49.973 92.0623 50.0415C92.1763 50.0985 92.3931 49.9274 92.5528 49.6537C92.7125 49.3799 92.7467 49.1061 92.644 49.0377C92.53 48.9807 92.3132 49.1518 92.1535 49.4255Z" stroke="black" stroke-width="0.806051" stroke-miterlimit="10" stroke-linecap="round" stroke-linejoin="round"/>
<path d="M102.135 98.9561C102.135 98.9561 102.249 98.842 102.454 98.6253C102.705 98.363 103.104 97.9295 103.595 97.382C103.96 96.9713 104.371 96.4922 104.815 95.9675C106.355 94.1196 108.249 91.2679 111.5 89.5911C114.751 87.9143 115.903 89.4542 115.823 90.2641C115.789 90.5835 115.72 90.8915 115.595 91.1881C115.253 92.0093 114.466 92.7736 112.697 93.6747C110.279 94.9067 108.785 98.0778 108.785 98.0778" stroke="black" stroke-width="0.806051" stroke-miterlimit="10" stroke-linecap="round" stroke-linejoin="round"/>
<path d="M91.6631 96.3662L93.3171 101.111C93.3171 101.111 104.998 104.739 108.363 105.469C110.838 106.005 113.199 105.127 114.648 103.838C115.173 103.37 115.572 102.857 115.823 102.343C116.142 101.693 116.815 100.598 117.716 99.5601C118.891 98.2255 120.454 96.9593 122.199 96.8339C125.302 96.6057 126.579 96.1951 126.26 93.9137C125.929 91.6323 123.089 91.7578 121.674 92.0886" stroke="black" stroke-width="0.806051" stroke-miterlimit="10" stroke-linecap="round" stroke-linejoin="round"/>
<path d="M115.595 91.1985C115.595 91.1985 117.329 89.2366 119.907 90.1833C121.218 90.6624 121.663 91.3696 121.538 92.0541C121.424 92.7042 120.785 93.343 119.907 93.7651C118.093 94.6206 115.846 95.7156 112.777 99.4343" stroke="black" stroke-width="0.806051" stroke-miterlimit="10" stroke-linecap="round" stroke-linejoin="round"/>
<path d="M114.853 104.316C114.853 104.316 116.244 104.35 117.59 105.868C119.917 108.503 121.218 108.343 121.982 106.723C122.415 105.788 122.575 104.202 121.697 102.662C121.343 102.035 120.818 101.408 120.065 100.837C119.472 100.392 118.754 99.9703 117.864 99.6166" stroke="black" stroke-width="0.806051" stroke-miterlimit="10" stroke-linecap="round" stroke-linejoin="round"/>
<path d="M56.5068 79.7345C56.5068 79.7345 56.8034 80.898 56.9859 82.1413C57.0885 82.8257 57.1456 83.533 57.1 84.0919C56.9859 85.4721 56.9174 85.6889 55.3433 87.1603C55.138 87.3543 54.9098 87.5596 54.6589 87.7877C54.4308 88.0045 54.2482 88.2326 54.1114 88.4835C52.9593 90.6622 55.3091 93.9588 57.3965 93.3086C57.7501 93.1946 58.0125 93.0577 58.2064 92.898C59.2901 92.0083 58.252 90.4569 59.4041 89.6128C60.7616 88.6204 62.9973 88.2326 61.5486 81.4341" stroke="black" stroke-width="0.806051" stroke-miterlimit="10" stroke-linecap="round" stroke-linejoin="round"/>
<path d="M66.2042 80.7283C66.2042 80.7283 66.0559 82.1086 66.4209 85.4394C66.592 86.9451 66.592 88.1086 66.3297 89.0325C66.1244 89.7626 65.7479 90.3329 65.1548 90.8006C64.8354 91.0515 64.4475 91.2797 63.9913 91.4736C61.6186 92.5002 61.4818 92.1352 60.8886 93.3215C60.2955 94.5078 58.4704 94.0173 58.208 92.9108" stroke="black" stroke-width="0.806051" stroke-miterlimit="10" stroke-linecap="round" stroke-linejoin="round"/>
<path d="M65.5645 72.9471C65.7127 73.0383 70.6063 75.9243 72.3971 75.6847C74.2222 75.4452 74.0511 74.0421 76.2983 74.9889C78.5454 75.9357 78.0778 79.3577 75.5797 79.5288" stroke="black" stroke-width="0.806051" stroke-miterlimit="10" stroke-linecap="round" stroke-linejoin="round"/>
</g>
<defs>
<clipPath id="clip0_1942_92395">
<rect width="163.46" height="150" fill="white" transform="translate(0.269531)"/>
</clipPath>
</defs>
</svg>
