<svg width="164" height="150" fill="none" xmlns="http://www.w3.org/2000/svg"><g clip-path="url(#a)"><path d="M69.474 2.499a19.016 19.016 0 0 1 18.992 0l30.594 17.657a18.995 18.995 0 0 1 9.501 16.45v35.326c0 6.787-3.616 13.06-9.501 16.449l-30.594 17.658a19.02 19.02 0 0 1-18.992 0L38.881 88.381a18.995 18.995 0 0 1-9.502-16.449V36.616a18.97 18.97 0 0 1 9.502-16.448l30.593-17.67Z" fill="#EF4723"/><path d="M69.474 2.499a19.016 19.016 0 0 1 18.992 0l30.594 17.657a18.995 18.995 0 0 1 9.501 16.45v35.326c0 6.787-3.616 13.06-9.501 16.449l-30.594 17.658a19.02 19.02 0 0 1-18.992 0L38.881 88.381a18.995 18.995 0 0 1-9.502-16.449V36.616a18.97 18.97 0 0 1 9.502-16.448l30.593-17.67Z" stroke="#000" stroke-width=".806" stroke-miterlimit="10" stroke-linecap="round" stroke-linejoin="round"/><path d="M99.098 76.005a36.86 36.86 0 0 1-2.133 1.769c-2.532 1.939-4.072 2.498-4.072 2.498l-4.894-.172 2.18-11.931-3.777 11.863-.353 1.106-.228.708-10.255-2.293c2.51-.171 2.966-3.593.719-4.54-2.248-.947-2.076.456-3.902.696-1.79.24-6.684-2.658-6.82-2.738-.297-.228-.594-.456-.913-.696a380.017 380.017 0 0 0-3.879-2.908l1.723-2.499 5.51-3.935-3.16.548-7.346 1.277.707-2.19 1.928-5.988-2.27-6.594-.457-1.323 21.97 5.213-.4.502 4.472 9.103 3.434-5.236.022-.023 5.875 5.521c-.011-.011 1.7 6.764 6.32 12.262Z" fill="#6EF78C"/><path d="m37.046 83.305 18.297 3.867c-.206.194-.434.4-.685.628-.228.216-.41.445-.547.695l-3.342-.695-13.267-2.784s-5.669 12.4-19.984 10.677C3.202 93.96.236 83.373.236 83.373l.4-2.84S3.738 92.01 16.73 93.993c12.992 1.974 20.315-10.688 20.315-10.688ZM158.027 114.571l.4 1.118s-6.799 9.833-21.639 4.745c-14.84-5.087-13.654-17.475-13.654-17.475l-1.437-.296c-.354-.628-.879-1.255-1.632-1.826l4.118.867s-1.654 11.35 11.875 16.62c13.528 5.282 21.969-3.753 21.969-3.753ZM67.16 91.231l-1.997-.422a3.296 3.296 0 0 0 1.175-1.768c.16.514.593 1.791.821 2.19ZM103.547 97.348l.046.034c-.49.548-.89.97-1.141 1.244l-10.79-2.259-9.867-2.065-9.582-2.007c.217-.4.24-.924.171-1.529l31.163 6.582Z" fill="#FF8166"/><path d="M114.852 104.316c.308.935.73 3.285-.605 7.62-1.836 5.943-5.885 17.087-5.885 17.087l-1.506.137-20.202 1.836-5.213.468c3.297-2.897 3.365-6.068 4.22-10.95.856-4.883 4.62-4.483 5.67-8.441 1.05-3.959 1.654-5.613 1.654-5.613L81.806 94.3l9.867 2.065 1.654 4.746s11.681 3.627 15.046 4.357c2.475.536 4.836-.342 6.285-1.631-.011 0 .091.159.194.479ZM67.16 91.233c.65 1.13 1.517 1.756 2.362 1.996 0 0-1.86 4.79-8.328 14.749-6.467 9.958-22.3 21.308-22.3 21.308l-15.673-6.97-5.236-2.327s10.164-4.494 12.137-7.916c1.985-3.433 3.171-4.22 9.365-9.365 6.206-5.144 11.293-14.897 11.293-14.897l3.342.695c-1.152 2.18 1.198 5.476 3.285 4.826.354-.114.616-.251.81-.411.263 1.106 2.088 1.597 2.68.41.594-1.186.73-.82 3.104-1.847a5.116 5.116 0 0 0 1.163-.673l1.996.422Z" fill="#63D196"/><path d="M56.871 82.153h.114c.103.685.16 1.392.115 1.95-.114 1.381-.183 1.598-1.757 3.07l-18.297-3.868s-7.323 12.662-20.315 10.689C3.738 92.02.636 80.534.636 80.534l17.76 4.46c.41.102.856-.035 1.13-.354 1.003-1.13 3.273-4.118 4.391-8.943.753-3.194.992-7.209.023-12.023a1.118 1.118 0 0 0-.901-.89l-18.126-3.49s8.647-9.707 21.114-3.696c1.711 2.92 6.126 9.445 14.396 15.924 10.79 8.43 16.13 10.506 16.448 10.631Z" fill="#FDD425"/><path d="M68.54 75.342c-.673-.593-1.7-1.414-2.966-2.395.148.091 5.03 2.977 6.822 2.737 1.825-.24 1.653-1.642 3.9-.695 2.248.946 1.78 4.368-.718 4.54l-4.414-.993c-.502-.98-1.324-2.042-2.624-3.194Z" fill="#CDAE92"/><path d="M66.338 89.042c-.206.73-.582 1.3-1.175 1.768-.32.25-.707.479-1.164.673-2.372 1.026-2.51.661-3.102 1.848-.593 1.186-2.419.696-2.68-.41-.195.159-.457.296-.81.41-2.088.65-4.45-2.647-3.286-4.825a2.42 2.42 0 0 1 .548-.696c.25-.24.479-.445.684-.627 1.574-1.472 1.643-1.7 1.757-3.069.045-.547-.012-1.266-.114-1.95h-.114c-.32-.126-5.658-2.202-16.438-10.632C32.163 65.053 27.76 58.53 26.05 55.608c-.593-1.003-.856-1.585-.856-1.585l31.05-3.844 1.642-.206 2.27 6.593-1.927 5.99-1.985.239-3.81.456a867.147 867.147 0 0 1 8.373 6.091 264.14 264.14 0 0 1 3.878 2.909c.32.24.616.479.912.696 1.267.97 2.293 1.802 2.966 2.395 1.312 1.152 2.133 2.213 2.624 3.206 1.14 2.292.604 4.231.228 6.034-.707 3.445.787 4.38 1.004 6.194.068.604.045 1.129-.171 1.528-.035.069-.08.137-.126.206-.559.707-1.563 1.015-2.578.73-.844-.229-1.7-.867-2.361-1.997-.251-.41-.684-1.688-.844-2.201ZM114.646 103.826c.525-.468.924-.981 1.175-1.494.32-.65.993-1.746 1.894-2.783l.148.068c.89.365 1.609.776 2.202 1.22.741.571 1.277 1.198 1.631 1.826.867 1.539.719 3.125.285 4.06-.764 1.62-2.053 1.78-4.392-.855-1.346-1.517-2.737-1.551-2.737-1.551-.103-.32-.206-.48-.206-.491Z" fill="#CDAE92"/><path d="M115.593 91.199s1.734-1.962 4.312-1.016c1.312.48 1.756 1.187 1.631 1.871l.148.023c1.415-.33 4.255-.456 4.586 1.825.331 2.293-.958 2.692-4.061 2.92-1.745.126-3.319 1.392-4.483 2.727-.912 1.038-1.585 2.133-1.893 2.783-.251.525-.662 1.038-1.175 1.494-1.46 1.289-3.81 2.167-6.286 1.631-3.365-.73-15.045-4.357-15.045-4.357l-1.654-4.745 10.791 2.258c.251-.262.65-.696 1.14-1.243.365-.41.776-.89 1.221-1.415 1.54-1.847 3.433-4.7 6.684-6.376 3.251-1.677 4.403-.137 4.324.673a3.757 3.757 0 0 1-.24.947Z" fill="#CDAE92"/><path d="M147.475 80.99c14.715 2.247 15.502 12.136 15.502 12.136l-17.68-4.483a1.158 1.158 0 0 0-1.153.365c-.616.73-1.722 2.202-2.737 4.404-1.609 3.49-3.012 8.817-1.917 15.969.069.456.411.821.867.935l3.229.776 11.281 2.715 3.148.753s-8.441 9.034-21.969 3.764c-13.518-5.281-11.875-16.62-11.875-16.62l-4.118-.867a9.491 9.491 0 0 0-2.201-1.22l-.149-.069c1.175-1.334 2.738-2.6 4.483-2.726 3.103-.228 4.38-.639 4.061-2.92-.331-2.281-3.171-2.156-4.585-1.825l-.149-.023c.126-.684-.319-1.392-1.631-1.87-2.578-.947-4.312 1.015-4.312 1.015.126-.297.194-.605.228-.924.092-.81-1.06-2.35-4.323-.673-3.251 1.676-5.144 4.528-6.684 6.376a40.115 40.115 0 0 1-1.221 1.415l-.045-.035-31.152-6.582c-.217-1.813-1.712-2.748-1.004-6.193.365-1.803.912-3.742-.228-6.035l4.414.993 10.255 2.293 1.62.365 11.292 2.532 27.833 6.228c.011 0 6.205-12.205 20.92-9.97Z" fill="#FDD425"/><path d="m57.407 48.651.456 1.324-1.642.194 1.186-1.518Z" fill="#000"/><path d="M120.555 148.05c.297.992.297 1.688.297 1.688L80.186 150l.662-1.95h39.707ZM45.693 149.99H5.38s.171-.741.547-1.95h39.206l.057-.023c.228.616.399 1.266.502 1.973ZM89.47 51.251c.49.194 1.3.297 1.232 1.072-.068.776-.73 1.061-2.19.251-1.471-.798-1.369-2.692-.445-2.68.924.034.445.98 1.403 1.357Z" fill="#F2EEEB"/><path d="m157.399 111.832-1.026 1.004a3.92 3.92 0 0 1-1.494.981l-11.282-2.715a3.982 3.982 0 0 1-.947-1.631l-2.041-7.027a3.952 3.952 0 0 1 .935-3.82l1.198-1.176a3.928 3.928 0 0 0-.936 3.822l2.042 7.026a3.964 3.964 0 0 0 2.84 2.726l7.107 1.746a3.952 3.952 0 0 0 3.604-.936Z" fill="#FF8166"/><path d="M163.57 102.561a3.955 3.955 0 0 1-.935 3.821l-5.065 5.281-.171.171a3.924 3.924 0 0 1-3.605.924l-7.106-1.745a3.903 3.903 0 0 1-2.84-2.726l-2.042-7.027a3.955 3.955 0 0 1 .935-3.821l5.065-5.281c.399-.411.878-.73 1.391-.936a3.866 3.866 0 0 1 2.384-.16l7.107 1.746a3.924 3.924 0 0 1 2.84 2.715l2.042 7.038Z" fill="#EF4723"/><path d="m162.978 93.127-1.164 1.517-.798-.217a3.88 3.88 0 0 0-2.327-1.62l-7.107-1.745a3.945 3.945 0 0 0-2.384.16l-3.73-1.015a1.212 1.212 0 0 0-1.175.319l-2.874 2.897c1.015-2.201 2.122-3.673 2.738-4.403.285-.33.73-.479 1.152-.365l17.669 4.472ZM23.952 63.675c.97 4.813.718 8.829-.023 12.023.684-5.396-.194-8.932-.65-10.3a1.206 1.206 0 0 0-.867-.788L5.53 60.914l-.593-1.62 18.125 3.491c.433.08.798.434.89.89Z" fill="#FF8166"/><path d="M34.275 140.956s-.012 0 0 0c-.137.012-1.529.194-5.533 2.247 1.894-2.863 3.582-2.817 3.582-2.817.536.217 1.186.399 1.95.57ZM120.555 148.051H80.848l3.536-10.391s1.357-.183 5.498 1.928c7.916 4.026 9.148-4.061 15.388-2.624-.08 1.574.673 2.407 2.167 3.103 0 0-1.928 1.266-2.852 4.3 3.24-3.274 4.563-3.627 4.609-3.639-.057.046-1.94 1.654-2.305 4.118 2.932-2.989 4.609-3.422 4.609-3.422.867.251 1.814.536 2.852.867 4.186 1.335 5.669 4.004 6.205 5.76Z" fill="#FDD425"/><path d="M107.448 140.044c.502.228 1.095.445 1.757.661-.046.012-1.369.354-4.608 3.639.924-3.034 2.851-4.3 2.851-4.3ZM36.806 141.583c-.057 0-1.802-.023-5.475 2.144 1.13-2.258 2.783-2.726 2.932-2.772.832.183 1.688.388 2.543.628Z" fill="#FDD425"/><path d="m45.203 148.027-.058.023H5.93c.73-2.327 2.235-6.41 4.802-10.312 0 0 2.304.457 4.745 2.168 6.194 2.772 10.597-3.901 14.863-2.841-.718 1.267-.194 2.464 1.974 3.32 0 0-1.689-.046-3.582 2.817 4.004-2.041 5.395-2.224 5.532-2.235-.148.034-1.802.501-2.931 2.771 3.673-2.155 5.418-2.144 5.475-2.144 3.536 1.015 7.027 2.738 8.395 6.433ZM111.51 141.4s-1.677.434-4.609 3.422c.365-2.463 2.248-4.072 2.305-4.117.684.228 1.448.444 2.304.695Z" fill="#FDD425"/><path d="m96.965 77.773 1.768 6.946-11.292-2.532-.422-2.133.992.034 4.894.171c-.012.012 1.528-.547 4.06-2.486Z" fill="#CDAE92"/><path d="m88.217 54.537-.514.787-1.46-2.658c.548.947 1.255 1.517 1.974 1.871Z" fill="#000"/><path d="m23.221 122.316 15.673 6.969s-4.95 4.415-7.392 6.468c-.524.433-.912.878-1.163 1.312-4.266-1.061-8.67 5.612-14.863 2.84-2.441-1.711-4.746-2.167-4.746-2.167a30.891 30.891 0 0 1 2.1-2.841c3.604-4.3 6.958-8.384 8.828-10.677.993-1.197 1.563-1.904 1.563-1.904ZM86.654 130.986l20.202-1.836s-.673 2.897-1.46 6.924a6.657 6.657 0 0 0-.115.867c-6.25-1.438-7.471 6.65-15.387 2.623-4.141-2.099-5.499-1.928-5.499-1.928l1.586-4.665.673-1.985ZM86.108 52.427l.136.24 1.46 2.657-1.482 2.281.09.057.583.548-.023.023-3.434 5.236-4.471-9.103.399-.502 5.076-6.342s1.004.24 1.369-.764a1.637 1.637 0 0 1-.628-.582c-.764-.901.183-2.441 1.324-2.065 1.14.377 1.05 1.38 1.05 1.38s-.685.924 0 1.232c.684.308 1.402-1.232 1.402-1.232s1.54.913 2.863.56c.924 2.224 2.373 2.486 2.373 2.486l-.308.696-2.51 5.726s-1.608.342-3.194-.422c-.718-.342-1.425-.924-1.973-1.87l-.102-.24Zm6.444-2.76c.16-.275.194-.548.092-.617-.115-.068-.331.114-.49.388-.16.274-.195.548-.092.616.114.057.33-.114.49-.388Zm-1.87-1.244c.16-.274.194-.548.09-.616-.113-.069-.33.114-.49.388-.16.273-.205.547-.09.616.113.068.33-.103.49-.388Zm.034 3.912c.068-.775-.742-.878-1.232-1.072-.97-.376-.48-1.334-1.403-1.346-.924-.011-1.027 1.882.445 2.68 1.46.788 2.121.503 2.19-.262Z" fill="#CDAE92"/><path d="M90.178 68.156 87.999 80.1l-.98-.034-.548-.023-.069-.023 3.776-11.863ZM17.985 119.99l5.236 2.327s-.57.708-1.551 1.905l-3.685-4.232ZM96.682 42.047c2.396.775 2.247 4.05 1.38 5.384-.855 1.346-2.235 2.099-4.152 1.79l.308-.695s-1.448-.263-2.372-2.487c-1.323.354-2.863-.559-2.863-.559s-.73 1.54-1.403 1.232c-.685-.308 0-1.232 0-1.232s.09-1.015-1.05-1.38c-1.14-.377-2.087 1.163-1.323 2.065.194.296.422.467.627.581-.365 1.004-1.368.765-1.368.765s-1.654-.377-1.654-2.51 2.863-2.863 3.798-1.585c0 0 .582-1.141 2.966-1.654 2.384-.502 3.399 1.38 3.399 1.38s1.312-1.86 3.707-1.095ZM68.004 62.92l-5.499 3.936-.01-.012 2.349-3.376 3.16-.548ZM86.654 130.985l-.684 2.008-4.529-1.54 5.213-.468ZM58.206 62.545l-.708 2.202-1.277-1.95 1.985-.252ZM92.643 49.05c.114.07.069.343-.091.617-.16.274-.377.445-.49.388-.115-.069-.069-.343.09-.616.16-.285.377-.457.491-.388Z" fill="#000"/><path d="M90.761 47.818c.114.069.069.342-.09.616-.16.274-.377.445-.491.388-.115-.057-.069-.342.09-.616.16-.285.377-.456.491-.388Z" fill="#000"/><path d="m86.245 52.667 1.46 2.657M86.245 52.667l-.137-.24.137.24ZM86.438 46.929s-.274 0-.605-.171a1.636 1.636 0 0 1-.627-.582c-.764-.901.182-2.441 1.323-2.065 1.14.377 1.05 1.38 1.05 1.38s-.685.925 0 1.233c.684.308 1.402-1.232 1.402-1.232s1.54.912 2.864.559c.924 2.224 2.372 2.486 2.372 2.486l-.308.696-2.51 5.726s-1.608.342-3.193-.422c-.719-.342-1.426-.924-1.974-1.87" stroke="#000" stroke-width=".806" stroke-miterlimit="10" stroke-linecap="round" stroke-linejoin="round"/><path d="M93.91 49.233c1.916.296 3.297-.456 4.152-1.791.856-1.346 1.015-4.62-1.38-5.384-2.395-.764-3.719 1.118-3.719 1.118s-1.015-1.894-3.399-1.38c-2.384.501-2.966 1.654-2.966 1.654-.947-1.278-3.798-.548-3.798 1.585s1.654 2.51 1.654 2.51l-5.076 6.342-.4.502 4.472 9.102 3.433-5.236M65.564 72.948a381.569 381.569 0 0 0-4.79-3.605 709.434 709.434 0 0 0-8.373-6.091 1174.5 1174.5 0 0 0-7.266-5.19M66.34 89.042c.17.525.593 1.802.82 2.19.65 1.13 1.518 1.757 2.362 1.996 1.027.285 2.019-.023 2.578-.73a.893.893 0 0 0 .125-.205c.217-.4.24-.924.172-1.529-.217-1.813-1.712-2.749-1.004-6.194.365-1.802.912-3.741-.228-6.034-.502-.992-1.324-2.053-2.624-3.205-.673-.593-1.7-1.415-2.966-2.396" stroke="#000" stroke-width=".806" stroke-miterlimit="10" stroke-linecap="round" stroke-linejoin="round"/><path d="m57.865 49.974-1.643.205-31.05 3.844s.275.582.856 1.586c1.711 2.92 6.126 9.444 14.396 15.924 10.78 8.43 16.118 10.505 16.437 10.63h.012" stroke="#000" stroke-width=".806" stroke-miterlimit="10" stroke-linecap="round" stroke-linejoin="round"/><path d="m52.411 63.253 3.81-.457 1.985-.25" stroke="#000" stroke-width=".806" stroke-miterlimit="10" stroke-linecap="round" stroke-linejoin="round"/><path d="m56.222 50.169 1.186-1.517.456 1.323 2.27 6.593-1.928 5.977-.707 2.202-1.277-1.95M79.378 53.865l-21.97-5.213M88.218 54.537l-.513.787-1.483 2.281-1.814 2.784M86.314 57.663l.581.548 5.875 5.52s1.71 6.777 6.33 12.275a36.856 36.856 0 0 1-2.132 1.768c-2.533 1.939-4.073 2.498-4.073 2.498l-4.893-.171-.993-.034-.547-.023M57.5 64.746l7.346-1.278 3.16-.547-5.498 3.935" stroke="#000" stroke-width=".806" stroke-miterlimit="10" stroke-linecap="round" stroke-linejoin="round"/><path d="m60.773 69.344 1.722-2.499 2.35-3.376M55.344 87.172l-18.297-3.866s-7.323 12.661-20.315 10.688C3.739 92.02.637 80.534.637 80.534l17.76 4.46c.41.103.856-.034 1.13-.354 1.003-1.129 3.273-4.118 4.391-8.943.753-3.194.992-7.209.023-12.023a1.118 1.118 0 0 0-.901-.89l-18.126-3.49s8.647-9.707 21.114-3.696M103.55 97.346l-31.153-6.582M71.164 78.549l4.415.992 10.254 2.293 1.62.365 11.293 2.532 27.833 6.228s6.205-12.205 20.908-9.958c14.715 2.247 15.502 12.137 15.502 12.137l-17.68-4.483a1.158 1.158 0 0 0-1.153.365c-.616.73-1.722 2.202-2.737 4.403-1.609 3.49-3.012 8.818-1.917 15.97.069.456.411.821.867.935l3.229.776 11.281 2.715 3.148.752s-8.441 9.035-21.969 3.765c-13.518-5.282-11.875-16.62-11.875-16.62l-4.118-.867" stroke="#000" stroke-width=".806" stroke-miterlimit="10" stroke-linecap="round" stroke-linejoin="round"/><path d="m142.744 97.448 5.065-5.28c.399-.412.878-.73 1.391-.936a3.866 3.866 0 0 1 2.384-.16l7.107 1.745a3.927 3.927 0 0 1 2.84 2.715l2.042 7.027a3.955 3.955 0 0 1-.935 3.821l-5.065 5.281-.171.172a3.93 3.93 0 0 1-3.605.924l-7.106-1.746a3.903 3.903 0 0 1-2.84-2.726l-2.042-7.027a3.934 3.934 0 0 1 .935-3.81Z" stroke="#000" stroke-width=".806" stroke-miterlimit="10" stroke-linecap="round" stroke-linejoin="round"/><path d="M154.879 113.819a3.912 3.912 0 0 0 1.494-.981l1.027-1.003.171-.172M142.744 97.449l-1.198 1.175a3.925 3.925 0 0 0-.935 3.821l2.041 7.026a3.91 3.91 0 0 0 .947 1.632" stroke="#000" stroke-width=".806" stroke-miterlimit="10" stroke-linecap="round" stroke-linejoin="round"/><path d="m121.697 102.664 1.438.296s-1.187 12.399 13.654 17.475c14.84 5.076 21.638-4.745 21.638-4.745l-.399-1.118M91.663 96.366l10.791 2.258M72.226 92.295l9.581 2.007 9.856 2.065M65.154 90.811l2.008.422M.637 80.534l-.4 2.84S3.203 93.96 17.52 95.694c14.315 1.733 19.985-10.677 19.985-10.677L50.77 87.8l3.342.696M4.927 59.295l.593 1.62 16.882 3.695c.41.091.741.388.867.787.456 1.37 1.335 4.905.65 10.3M161.017 94.427l.798.217 1.164-1.517M141.42 93.422l2.874-2.897a1.212 1.212 0 0 1 1.175-.32l3.73 1.016" stroke="#000" stroke-width=".806" stroke-miterlimit="10" stroke-linecap="round" stroke-linejoin="round"/><path d="m81.806 94.301 11.18 12.16s-.594 1.654-1.655 5.612c-1.06 3.958-4.814 3.559-5.67 8.441-.855 4.882-.923 8.053-4.22 10.95l5.213-.467 20.202-1.837 1.506-.137s4.06-11.144 5.885-17.087c1.335-4.335.924-6.684.605-7.62-.103-.319-.205-.479-.205-.479M50.781 87.8s-5.087 9.752-11.293 14.897c-6.205 5.144-7.391 5.931-9.365 9.365-1.973 3.433-12.137 7.916-12.137 7.916l5.236 2.327 15.673 6.97s15.833-11.35 22.3-21.308c6.468-9.958 8.327-14.75 8.327-14.75" stroke="#000" stroke-width=".806" stroke-miterlimit="10" stroke-linecap="round" stroke-linejoin="round"/><path d="m86.655 130.985-.684 2.007-1.586 4.666-3.536 10.391-.662 1.951 40.666-.262s.011-.696-.297-1.689c-.536-1.745-2.019-4.426-6.194-5.772-1.038-.33-1.984-.616-2.851-.866-.856-.251-1.62-.48-2.304-.696a16.597 16.597 0 0 1-1.757-.662c-1.494-.684-2.247-1.528-2.167-3.103.011-.273.045-.558.114-.866.787-4.027 1.46-6.924 1.46-6.924M36.808 141.582c3.536 1.015 7.038 2.737 8.395 6.433.228.605.388 1.255.49 1.973H5.383s.17-.741.547-1.95c.73-2.327 2.236-6.411 4.803-10.312a30.861 30.861 0 0 1 2.099-2.84c3.604-4.301 6.958-8.384 8.828-10.677.97-1.198 1.552-1.905 1.552-1.905" stroke="#000" stroke-width=".806" stroke-miterlimit="10" stroke-linecap="round" stroke-linejoin="round"/><path d="M38.894 129.286s-4.95 4.415-7.392 6.468c-.525.433-.912.878-1.163 1.312-.719 1.266-.194 2.463 1.973 3.319.547.217 1.198.411 1.962.57.821.183 1.677.388 2.532.628M17.986 119.991l3.685 4.22M10.731 137.727s2.305.456 4.746 2.167c6.194 2.772 10.597-3.901 14.863-2.84M84.386 137.648s1.357-.182 5.498 1.928c7.916 4.027 9.148-4.061 15.388-2.624M81.441 131.454l4.529 1.54M5.93 148.05h39.205M80.849 148.05h39.707M85.823 81.833l.228-.707.354-1.106 3.776-11.864L88 80.1M96.969 77.773l1.768 6.947M87.02 80.065l.423 2.133M89.471 51.252c-.97-.377-.479-1.335-1.403-1.346-.924-.012-1.026 1.882.445 2.68 1.471.799 2.133.525 2.19-.25.069-.776-.73-.89-1.232-1.084ZM91.549 49.46l-.114 1.791-.856-.604M34.264 140.967c-.183.046-1.814.536-2.932 2.772 3.673-2.156 5.418-2.144 5.475-2.144" stroke="#000" stroke-width=".806" stroke-miterlimit="10" stroke-linecap="round" stroke-linejoin="round"/><path d="M32.314 140.386s-1.688-.045-3.582 2.818c3.947-2.019 5.362-2.225 5.521-2.236h.012M109.207 140.705c-.058.045-1.94 1.654-2.305 4.118 2.932-2.989 4.609-3.422 4.609-3.422M107.45 140.042s-1.927 1.266-2.851 4.3c3.239-3.274 4.562-3.627 4.608-3.639M84.453 47.522s1.004.24 1.369-.764M90.273 48.195c-.16.274-.206.547-.091.616.114.068.33-.114.49-.388.16-.274.194-.547.091-.616-.114-.057-.33.114-.49.388ZM92.153 49.425c-.16.274-.193.548-.09.617.113.056.33-.115.49-.388.16-.274.194-.548.091-.616-.114-.057-.33.114-.49.388ZM102.135 98.956s.114-.114.319-.33a57.66 57.66 0 0 0 2.361-2.659c1.54-1.847 3.434-4.7 6.685-6.376 3.251-1.677 4.403-.137 4.323.673-.034.32-.103.627-.228.924-.342.821-1.129 1.586-2.898 2.487-2.418 1.232-3.912 4.403-3.912 4.403" stroke="#000" stroke-width=".806" stroke-miterlimit="10" stroke-linecap="round" stroke-linejoin="round"/><path d="m91.663 96.366 1.654 4.745s11.681 3.628 15.046 4.358c2.475.536 4.836-.342 6.285-1.631.525-.468.924-.981 1.175-1.495.319-.65.992-1.745 1.893-2.783 1.175-1.335 2.738-2.6 4.483-2.726 3.103-.228 4.38-.639 4.061-2.92-.331-2.282-3.171-2.156-4.586-1.825" stroke="#000" stroke-width=".806" stroke-miterlimit="10" stroke-linecap="round" stroke-linejoin="round"/><path d="M115.595 91.198s1.734-1.961 4.312-1.015c1.311.48 1.756 1.187 1.631 1.871-.114.65-.753 1.289-1.631 1.711-1.814.856-4.061 1.95-7.13 5.67M114.853 104.316s1.391.034 2.737 1.552c2.327 2.635 3.628 2.475 4.392.855.433-.935.593-2.521-.285-4.061-.354-.627-.879-1.254-1.632-1.825a9.434 9.434 0 0 0-2.201-1.22M56.507 79.734s.296 1.164.479 2.407c.103.685.16 1.392.114 1.95-.114 1.381-.183 1.598-1.757 3.07-.205.193-.433.399-.684.627a2.83 2.83 0 0 0-.548.696c-1.152 2.178 1.198 5.475 3.286 4.825.353-.114.616-.251.81-.411 1.083-.89.045-2.441 1.197-3.285 1.358-.993 3.593-1.38 2.145-8.179" stroke="#000" stroke-width=".806" stroke-miterlimit="10" stroke-linecap="round" stroke-linejoin="round"/><path d="M66.204 80.728s-.148 1.38.217 4.711c.171 1.506.171 2.67-.091 3.594-.206.73-.582 1.3-1.175 1.768-.32.25-.707.479-1.164.673-2.372 1.026-2.51.661-3.102 1.847-.594 1.187-2.419.696-2.681-.41M65.564 72.947c.149.091 5.042 2.977 6.833 2.738 1.825-.24 1.654-1.643 3.901-.696 2.247.947 1.78 4.369-.718 4.54" stroke="#000" stroke-width=".806" stroke-miterlimit="10" stroke-linecap="round" stroke-linejoin="round"/></g><defs><clipPath id="a"><path fill="#fff" transform="translate(.27)" d="M0 0h163.46v150H0z"/></clipPath></defs></svg>